HIERARCHY
ROOT root
{
	OFFSET 0.000000 0.000000 0.000000
	CHANNELS 6 Xposition Yposition Zposition Zrotation Yrotation Xrotation
	JOINT lhip
	{
		OFFSET 0.058581 -0.082280 -0.017664
		CHANNELS 3 Zrotation Yrotation Xrotation
		JOINT lknee
		{
			OFFSET 0.043451 -0.386469 0.008037
			CHANNELS 3 Zrotation Yrotation Xrotation
			JOINT lankle
			{
				OFFSET -0.014790 -0.426874 -0.037428
				CHANNELS 3 Zrotation Yrotation Xrotation
				JOINT ltoe
				{
					OFFSET 0.041054 -0.060286 0.122042
					CHANNELS 3 Zrotation Yrotation Xrotation
					End Site
					{
						OFFSET 0.000000 0.000000 0.000000
					}
				}
			}
		}
	}
	JOINT rhip
	{
		OFFSET -0.060310 -0.090513 -0.013543
		CHANNELS 3 Zrotation Yrotation Xrotation
		JOINT rknee
		{
			OFFSET -0.043257 -0.383688 -0.004843
			CHANNELS 3 Zrotation Yrotation Xrotation
			JOINT rankle
			{
				OFFSET 0.019056 -0.420046 -0.034562
				CHANNELS 3 Zrotation Yrotation Xrotation
				JOINT rtoe
				{
					OFFSET -0.034840 -0.062106 0.130323
					CHANNELS 3 Zrotation Yrotation Xrotation
					End Site
					{
						OFFSET 0.000000 0.000000 0.000000
					}
				}
			}
		}
	}
	JOINT lowerback
	{
		OFFSET 0.004439 0.124404 -0.038385
		CHANNELS 3 Zrotation Yrotation Xrotation
		JOINT upperback
		{
			OFFSET 0.004488 0.137956 0.026820
			CHANNELS 3 Zrotation Yrotation Xrotation
			JOINT chest
			{
				OFFSET -0.002265 0.056032 0.002855
				CHANNELS 3 Zrotation Yrotation Xrotation
				JOINT lowerneck
				{
					OFFSET -0.013390 0.211636 -0.033468
					CHANNELS 3 Zrotation Yrotation Xrotation
					JOINT upperneck
					{
						OFFSET 0.010113 0.088937 0.050410
						CHANNELS 3 Zrotation Yrotation Xrotation
						End Site
						{
							OFFSET 0.000000 0.000000 0.000000
						}
					}
				}
				JOINT lclavicle
				{
					OFFSET 0.071702 0.114000 -0.018898
					CHANNELS 3 Zrotation Yrotation Xrotation
					JOINT lshoulder
					{
						OFFSET 0.122921 0.045205 -0.019046
						CHANNELS 3 Zrotation Yrotation Xrotation
						JOINT lelbow
						{
							OFFSET 0.255332 -0.015649 -0.022946
							CHANNELS 3 Zrotation Yrotation Xrotation
							JOINT lwrist
							{
								OFFSET 0.265709 0.012698 -0.007375
								CHANNELS 3 Zrotation Yrotation Xrotation
								End Site
								{
									OFFSET 0.000000 0.000000 0.000000
								}
							}
						}
					}
				}
				JOINT rclavicle
				{
					OFFSET -0.082954 0.112472 -0.023707
					CHANNELS 3 Zrotation Yrotation Xrotation
					JOINT rshoulder
					{
						OFFSET -0.113228 0.046853 -0.008472
						CHANNELS 3 Zrotation Yrotation Xrotation
						JOINT relbow
						{
							OFFSET -0.260127 -0.014369 -0.031269
							CHANNELS 3 Zrotation Yrotation Xrotation
							JOINT rwrist
							{
								OFFSET -0.269108 0.006794 -0.006027
								CHANNELS 3 Zrotation Yrotation Xrotation
								End Site
								{
									OFFSET 0.000000 0.000000 0.000000
								}
							}
						}
					}
				}
			}
		}
	}
}
MOTION
Frames: 17
Frame Time: 0.033333
-1.725915 0.240488 0.981558 77.569011 -1.827942 91.796730 -0.964414 -5.402042 -22.241542 -3.768678 1.637362 4.583377 2.284485 7.681764 2.812743 0.000000 -0.000000 0.000000 -4.220908 -2.720108 3.652624 1.687372 4.262652 27.696943 6.034026 -2.250393 -16.070074 0.000000 -0.000000 0.000000 -1.299927 8.259314 15.643410 0.563544 2.240734 1.715119 0.776262 4.706415 1.529719 -2.342151 8.338392 -12.271938 -5.092291 -2.245585 5.024788 -28.789511 4.157522 -1.377826 -52.175424 1.843560 11.958891 7.419875 -28.623447 6.696072 -1.710970 -3.444216 -8.283460 33.168779 9.049727 5.783389 46.125227 18.180255 7.313540 -14.434579 3.601928 -20.030220 -0.177380 0.127228 -5.232647 
-1.700196 0.244110 0.983070 77.572325 -2.500134 91.333394 -1.622873 -7.189567 -22.059278 -4.667549 0.457666 8.411337 3.960428 8.209047 1.261616 0.000000 -0.000000 0.000000 -5.018829 -1.780109 2.937375 1.682315 5.028207 32.303296 7.322530 -2.814220 -12.811196 0.000000 -0.000000 0.000000 -2.562596 8.891353 15.886838 0.203367 2.460242 1.328227 0.516502 4.631826 1.740670 -1.718902 7.964179 -13.091697 -4.366177 -2.510568 4.749523 -28.362227 3.806406 -1.311496 -51.818145 2.170392 12.094681 7.976993 -28.061269 5.626117 -1.233465 -3.109049 -8.423621 33.490961 9.728920 5.446531 45.789032 18.227228 7.864708 -14.287555 3.825176 -21.678622 -0.424346 -0.128490 -6.889239 
-1.672615 0.246678 0.986111 78.000340 -2.699777 89.966343 -2.670889 -7.897026 -20.305373 -4.948723 -0.451889 11.220384 5.154635 8.786460 -0.567603 0.000000 -0.000000 0.000000 -5.022269 -0.928993 2.430447 1.495269 5.503010 37.725389 8.889744 -2.776493 -6.524391 0.000000 -0.000000 0.000000 -3.285797 9.015227 16.614816 -0.032017 2.688225 1.682271 0.321251 4.707979 1.623297 -1.294416 6.795803 -13.420286 -3.847274 -2.608947 4.191245 -28.310849 3.032950 -1.565330 -51.089947 2.382772 11.854568 8.012561 -27.030745 4.913718 -0.826047 -3.617089 -8.159633 33.327869 10.615821 5.411089 45.785301 18.226102 8.133084 -14.417664 4.516273 -23.700387 -0.874977 -0.165049 -8.666606 
-1.643775 0.248735 0.988527 79.248170 -2.377423 89.115378 -3.990642 -8.191947 -18.198415 -4.924252 -1.784538 12.363184 6.906938 9.847564 -1.671663 0.000000 -0.000000 0.000000 -4.357890 -0.200912 0.648482 1.334723 4.883492 43.960308 9.930738 -3.648186 1.926601 0.000000 -0.000000 0.000000 -3.976744 8.556880 16.371236 0.067780 3.069882 1.339373 0.316900 4.483125 1.835661 -0.546887 5.651555 -12.853590 -2.887849 -2.332009 3.992298 -28.061434 2.719203 -1.562875 -50.650334 2.547447 11.991066 8.330905 -26.793364 4.221139 -0.394930 -3.553748 -8.035113 33.186170 10.719864 4.876301 45.817874 18.106493 8.693356 -14.412574 4.945235 -25.180761 -1.266288 -0.244896 -10.229204 
-1.615317 0.250579 0.990072 80.831624 -2.089321 88.150210 -5.326147 -8.432361 -15.349124 -4.913192 -3.560739 12.987395 9.070614 10.929784 -3.316452 0.000000 -0.000000 0.000000 -3.700508 0.621905 -1.419951 1.762487 4.381791 50.339082 9.571232 -5.042565 8.420948 0.000000 -0.000000 0.000000 -4.662724 7.690266 16.633922 0.166575 3.104887 0.408232 0.215002 4.107273 1.932080 0.228245 4.771538 -12.048994 -2.678790 -1.957166 4.549491 -27.665498 3.107226 -1.554943 -49.959741 2.529569 11.618322 7.998637 -27.382868 4.398729 -0.563828 -3.658056 -8.391970 32.845001 10.408421 4.131994 46.434706 17.857806 9.512327 -14.852004 6.010758 -26.108996 -0.948386 -0.355814 -11.425343 
-1.589433 0.252256 0.992283 83.076480 -1.939111 87.008786 -6.341215 -8.112249 -12.263059 -5.464909 -5.763921 13.023868 9.641289 11.017468 -4.447590 0.000000 -0.000000 0.000000 -3.131835 1.208281 -3.980534 1.925422 2.911467 57.236001 6.844339 -9.745053 10.970344 0.000000 -0.000000 0.000000 -5.261195 6.683484 16.234071 0.488717 3.056566 1.360013 -0.011848 3.371818 1.990543 1.086950 4.031790 -12.398845 -3.027042 -2.481513 4.744017 -27.725840 2.634439 -1.448951 -48.990008 1.509181 11.243008 8.015368 -27.984719 3.602942 -0.698202 -3.007128 -9.451085 32.570582 10.535508 3.201339 46.208289 17.832273 10.113880 -15.326492 7.246485 -27.081426 -0.220916 -0.595868 -12.752525 
-1.564096 0.253628 0.995337 85.025054 -1.614972 85.874107 -6.889684 -7.050836 -8.875487 -5.839970 -7.950464 12.454506 8.759658 10.694640 -5.682132 0.000000 -0.000000 0.000000 -2.521998 1.651094 -6.416202 1.675887 1.177353 62.070810 6.273995 -9.862033 5.185657 0.000000 -0.000000 0.000000 -5.368661 5.553749 16.723979 0.333007 2.794023 0.665507 -0.307584 3.161516 1.885509 1.557649 4.308156 -11.296937 -2.541899 -2.951271 5.502095 -27.017277 1.773578 -1.072060 -48.950055 1.002705 11.187024 8.547181 -28.121417 2.386649 -0.061127 -2.993695 -9.456223 32.344591 10.658117 2.790564 46.310550 16.975799 9.739607 -15.829199 8.375484 -27.349898 0.681836 0.106944 -14.605819 
-1.540688 0.255436 0.998673 87.284343 -1.153490 84.738723 -7.268828 -6.241897 -5.406767 -5.828604 -10.018732 11.655605 8.237921 10.434269 -6.666070 0.000000 -0.000000 0.000000 -1.884170 2.106430 -8.635068 0.382206 -0.762402 64.206547 5.019813 -11.541800 1.620869 0.000000 -0.000000 0.000000 -5.221003 4.387422 16.945733 0.404962 2.625304 0.579068 -0.343330 2.585658 2.075516 1.921864 4.180785 -10.626467 -3.012825 -3.458927 5.999353 -26.628390 1.047658 -1.094887 -49.131464 -0.457223 10.813222 8.940769 -27.949412 1.828702 -0.431783 -3.540356 -9.438094 31.701174 10.598165 2.166344 46.442750 16.462184 9.538497 -16.461306 9.498559 -27.639305 1.254947 0.331704 -15.735867 
-1.517714 0.257364 1.001419 89.450379 -0.720187 84.127267 -7.473584 -5.262121 -2.606257 -5.730529 -11.991116 10.814548 7.884258 10.139673 -7.552609 0.000000 -0.000000 0.000000 -1.598147 2.494283 -11.595198 0.191954 -1.853123 65.016948 4.615445 -11.859723 -2.314422 0.000000 -0.000000 0.000000 -5.156228 3.020727 17.119618 0.557143 2.329404 -0.332796 -0.383861 2.071745 1.943734 2.229776 4.161205 -9.463006 -3.563342 -3.569325 7.474995 -26.315293 1.014728 -1.040530 -49.295756 -1.731630 10.869532 9.078542 -28.189738 1.829000 -0.469239 -3.703929 -9.418963 31.441211 9.833000 1.745040 46.448765 15.946844 9.453739 -16.921640 10.574656 -27.382077 2.736315 1.016870 -16.643459 
-1.496104 0.259438 1.003917 91.192944 -0.268255 83.259217 -7.516894 -4.282458 0.651248 -5.497161 -13.917877 9.529189 7.762837 9.937450 -8.210479 0.000000 -0.000000 0.000000 -1.504461 3.134240 -14.128402 -0.201156 -2.736347 63.668870 4.366883 -12.612545 -5.486626 0.000000 -0.000000 0.000000 -4.953956 1.910886 17.234964 0.792137 2.349791 -0.343227 -0.330674 1.353051 2.060805 2.315411 4.498216 -8.901903 -3.860449 -3.748676 8.101662 -26.175402 0.623873 -0.971328 -49.462143 -3.302242 11.015612 9.297290 -29.163344 1.566134 -1.228902 -3.296125 -9.898793 31.065507 9.421196 1.115227 46.559055 15.505295 9.618125 -17.803201 11.978542 -27.398217 3.971260 1.371504 -17.469735 
-1.474329 0.261894 1.004962 93.054408 0.040512 82.947508 -7.614155 -2.659061 3.027773 -4.914525 -16.028466 8.486228 8.675137 8.733153 -7.962368 0.000000 -0.000000 0.000000 -2.233709 2.993966 -17.216204 -0.552666 -3.519978 61.202717 4.739330 -11.449412 -8.058233 0.000000 -0.000000 0.000000 -4.702951 0.224014 17.733675 0.784943 2.348906 -1.930907 -0.465616 0.947066 1.871855 3.600993 4.223400 -6.542964 -5.791396 -3.413049 8.910668 -25.076149 1.711376 0.617474 -50.604361 -6.223469 10.008002 9.392723 -30.212498 2.776567 -6.583207 -2.358720 -8.670554 30.504850 7.927906 1.074438 47.312538 15.682890 8.256579 -18.088234 13.432692 -26.949075 5.469492 1.364768 -13.913335 
-1.454175 0.263851 1.006034 94.483477 0.480236 82.432273 -7.358482 -1.937930 5.373445 -4.736641 -17.588291 7.839902 8.580291 8.614993 -8.546306 0.000000 -0.000000 0.000000 -2.694030 3.127943 -19.730015 -0.492093 -3.984420 57.181906 5.345149 -10.582382 -9.598112 0.000000 -0.000000 0.000000 -4.193039 -0.845146 18.041298 1.011536 2.069910 -2.022483 -0.312686 0.264912 1.816428 3.383062 4.581965 -6.517944 -6.203219 -3.406006 9.450739 -24.957306 1.491137 -0.017863 -50.935482 -7.376823 10.457117 8.885064 -31.265807 3.405903 -6.503824 -2.676185 -7.996188 30.111387 7.668410 0.302756 47.578497 15.718551 8.452013 -18.769059 14.417260 -26.700087 6.013833 1.734099 -13.312511 
-1.434562 0.265560 1.005805 95.881001 1.017678 82.200061 -6.856146 -1.179795 7.091618 -4.583927 -18.771766 7.673044 8.402578 8.056671 -9.904856 0.000000 -0.000000 0.000000 -3.194404 2.856301 -22.072640 -0.532568 -4.581899 51.995393 6.003097 -9.826530 -10.460036 0.000000 -0.000000 0.000000 -3.643120 -1.802040 18.180559 1.210724 1.616544 -2.663501 -0.199790 -0.075821 1.513565 3.639284 4.755981 -5.029748 -6.249412 -3.393924 10.302955 -24.363929 0.574226 0.771011 -51.699402 -8.700359 10.843844 9.010760 -31.797665 3.346627 -6.053514 -3.080448 -7.854569 30.261715 7.416300 0.251426 47.248237 15.734588 8.402367 -18.912424 15.448511 -26.347189 5.941677 2.050287 -12.995553 
-1.414515 0.267053 1.004455 96.890036 1.486411 81.946597 -6.367982 -0.684737 8.777046 -4.532849 -19.681638 7.839733 8.352765 7.785719 -11.023435 0.000000 -0.000000 0.000000 -3.633236 2.433610 -23.659378 -0.578696 -5.391942 45.655852 6.397139 -9.597092 -10.166634 0.000000 -0.000000 0.000000 -3.186419 -1.929826 18.183607 1.640145 1.687838 -2.627992 0.441306 -1.241087 1.577010 3.418291 4.643214 -4.979322 -7.183345 -3.039360 10.946982 -24.474207 -0.342837 0.772769 -52.248116 -10.085499 11.254460 8.783412 -32.275784 3.692596 -5.767069 -3.380802 -7.512103 29.630427 7.273527 -0.266855 47.243878 16.043208 8.607941 -19.314124 16.515618 -26.356172 5.757660 2.393531 -12.814396 
-1.394119 0.268300 1.002358 97.603916 1.607865 81.941244 -6.089750 -0.087130 10.184739 -4.410681 -20.128993 7.954179 8.409275 7.306617 -11.858579 0.000000 -0.000000 0.000000 -4.100163 1.464696 -24.795917 -0.786971 -6.253304 38.160461 7.177543 -8.809066 -8.086353 0.000000 -0.000000 0.000000 -2.780953 -2.614446 18.453557 1.531841 0.933346 -3.152562 0.565130 -1.109502 0.976073 3.369426 4.308607 -3.657020 -6.524924 -2.849259 11.541958 -23.915130 -0.595066 0.991114 -52.713536 -11.098895 11.352141 8.192276 -32.967941 4.250879 -5.396544 -3.292843 -6.936078 29.711448 7.256334 0.110195 47.471952 16.340564 8.491715 -19.702832 17.340506 -26.058886 5.608692 2.688571 -12.075722 
-1.372940 0.269508 0.999104 98.006367 1.726336 82.096180 -5.640802 0.583300 11.549950 -4.609149 -20.160195 7.980737 8.404004 7.264852 -13.349144 0.000000 -0.000000 0.000000 -4.325410 0.420001 -25.320645 -0.515348 -7.370020 29.877376 7.907005 -8.368211 -6.360692 0.000000 -0.000000 0.000000 -2.428350 -2.532883 17.769236 1.626176 0.642310 -2.818727 0.906762 -1.623988 1.049022 3.386654 4.030111 -3.293124 -5.975175 -3.019161 11.847118 -23.696885 -1.553982 1.194768 -53.247961 -12.352953 11.611537 8.166743 -33.237366 4.354877 -5.071249 -3.876588 -6.649281 29.448700 7.489022 -0.011460 47.367904 16.918734 8.354982 -19.746307 17.628682 -25.550228 5.230839 2.627862 -11.617129 
-1.350602 0.270480 0.995042 98.462321 1.840746 82.592038 -5.249761 1.279365 12.703695 -4.520661 -20.309338 7.883370 7.623499 6.705927 -15.052603 0.000000 -0.000000 0.000000 -4.299311 -0.746990 -25.362723 0.023590 -8.656371 21.083320 9.038073 -7.761294 -4.560749 0.000000 -0.000000 0.000000 -1.873705 -2.597411 17.121275 1.484188 0.308187 -2.960848 1.115785 -2.004552 0.926065 3.192531 3.941741 -2.557133 -5.359998 -2.863733 12.060369 -23.510549 -2.276793 1.597311 -53.593340 -13.216814 11.719362 7.948418 -33.704356 4.682383 -4.925469 -3.877085 -5.861556 29.122720 7.640765 0.029405 47.505685 17.108951 8.124816 -19.788622 17.900619 -24.790538 5.229905 2.907884 -10.690922 
